<svg width="140" height="140" viewBox="0 0 140 140" fill="none" xmlns="http://www.w3.org/2000/svg">
<g filter="url(#filter0_d)">
<path d="M70 10C37.0236 10 10 37.258 10 70.2344C10 103.019 36.7773 130 70 130C103.181 130 130 103.06 130 70.2344C130 37.258 102.976 10 70 10ZM80.5469 121.914C77.1722 122.617 73.5861 122.969 70 122.969C66.4139 122.969 62.8278 122.617 59.4531 121.914V105.461C59.4531 101.523 60.5078 100.117 61.9141 98.2184C62.63 97.3999 63.0621 96.6656 66.2729 91.8207L60.8594 90.9766C46.937 88.9377 41.4529 81.6949 39.2731 76.0699C36.4606 68.5471 37.9373 59.1245 43.0002 53.1488C43.7738 52.2342 44.4064 50.687 43.8443 49.0701C42.7887 45.8356 42.9297 40.7031 43.6328 38.7338C47.3608 39.2667 51.1942 41.9373 54.3912 43.8672C55.8643 44.7269 56.637 44.4998 57.3438 44.5703C59.9127 44.0356 63.92 42.742 70.0705 42.742C73.8672 42.742 77.8754 43.3041 81.813 44.4293C82.5171 44.4128 83.6487 45.0116 85.6097 43.8672C88.9514 41.8311 92.6547 39.252 96.3672 38.7338C97.0703 40.7031 97.2113 45.8356 96.1566 49.0701C95.5936 50.687 96.2262 52.2342 97.0007 53.1488C102.063 59.1254 103.539 68.5471 100.727 76.0699C98.5471 81.6949 93.063 88.9377 79.1406 90.9766L73.7271 91.8207C77.0459 96.8286 77.3956 97.4292 78.0869 98.2184C79.4922 100.117 80.5469 101.523 80.5469 105.461V121.914ZM87.5781 119.875V105.461C87.5781 101.453 86.734 98.7814 85.6088 96.8121C96.2967 93.9301 103.891 87.601 107.266 78.5309C110.852 68.9691 109.235 57.5781 103.257 49.7028C104.313 44.9924 104.313 37.4686 101.782 33.9529C100.656 32.4066 99.1092 31.5625 97.1408 31.5625C97.0703 31.5625 97.0703 31.5625 97.0703 31.5625C91.6183 31.8573 87.3273 34.603 82.7267 37.3981C78.508 36.2729 74.2188 35.7108 69.9295 35.7108C65.5707 35.7108 61.2109 36.3434 57.3447 37.3981C52.5015 34.4775 48.2516 31.85 42.6486 31.5625C40.8908 31.5625 39.3436 32.4066 38.2184 33.9529C35.6879 37.4686 35.6879 44.9924 36.7426 49.7028C30.7651 57.5781 29.1483 69.0387 32.7344 78.5309C36.109 87.601 43.7033 93.9301 54.3912 96.8121C53.5187 98.3383 52.8284 100.308 52.5565 102.973C50.3976 103.717 48.5254 103.96 46.7841 103.448C44.9475 102.905 43.5165 101.679 42.2733 99.588C39.4809 94.8969 34.7247 91.0672 29.3094 91.5652L29.9274 98.569C32.435 98.3392 34.9307 100.992 36.2271 103.18C38.3658 106.781 41.2469 109.143 44.7928 110.191C47.4249 110.966 49.8309 110.948 52.4219 110.395V119.875C31.9608 112.703 17.0312 93.1564 17.0312 70.2344C17.0312 41.1252 40.8908 17.0312 70 17.0312C99.1092 17.0312 122.969 41.1252 122.969 70.2344C122.969 93.1564 108.039 112.703 87.5781 119.875Z" fill="#59C7F6"/>
</g>
<defs>
<filter id="filter0_d" x="0" y="0" width="140" height="140" filterUnits="userSpaceOnUse" color-interpolation-filters="sRGB">
<feFlood flood-opacity="0" result="BackgroundImageFix"/>
<feColorMatrix in="SourceAlpha" type="matrix" values="0 0 0 0 0 0 0 0 0 0 0 0 0 0 0 0 0 0 127 0"/>
<feOffset/>
<feGaussianBlur stdDeviation="5"/>
<feColorMatrix type="matrix" values="0 0 0 0 0.34902 0 0 0 0 0.780392 0 0 0 0 0.964706 0 0 0 1 0"/>
<feBlend mode="normal" in2="BackgroundImageFix" result="effect1_dropShadow"/>
<feBlend mode="normal" in="SourceGraphic" in2="effect1_dropShadow" result="shape"/>
</filter>
</defs>
</svg>