            <svg width="137" height="140" viewBox="0 0 137 140" fill="none" xmlns="http://www.w3.org/2000/svg">
<g filter="url(#filter0_d)">
<path d="M36.2184 47.6556H13.625C11.6832 47.6556 10.1094 49.2303 10.1094 51.1713V126.484C10.1094 128.426 11.6832 130 13.625 130H36.2184C38.1602 130 39.734 128.426 39.734 126.484V51.1713C39.734 49.2303 38.1602 47.6556 36.2184 47.6556ZM32.7028 122.969H17.1406V54.6869H32.7028V122.969Z" fill="#59C7F6"/>
<path d="M24.9226 10C16.7543 10 10.1094 16.6449 10.1094 24.8114C10.1094 32.9797 16.7543 39.6237 24.9226 39.6237C33.09 39.6237 39.734 32.9788 39.734 24.8114C39.734 16.6449 33.09 10 24.9226 10ZM24.9226 32.5925C20.6315 32.5925 17.1406 29.1025 17.1406 24.8114C17.1406 20.5212 20.6315 17.0312 24.9226 17.0312C29.2128 17.0312 32.7028 20.5212 32.7028 24.8114C32.7028 29.1025 29.2128 32.5925 24.9226 32.5925Z" fill="#59C7F6"/>
<path d="M92.7054 47.1584C87.3614 47.1584 82.0944 48.4466 77.3776 50.8563C77.2174 49.0627 75.7114 47.6556 73.8757 47.6556H51.2805C49.3396 47.6556 47.7649 49.2303 47.7649 51.1712V126.484C47.7649 128.426 49.3396 130 51.2805 130H73.8757C75.8176 130 77.3914 128.426 77.3914 126.484V85.0622C77.3914 79.7338 81.7273 75.3988 87.0557 75.3988C92.384 75.3988 96.7181 79.7338 96.7181 85.0622V126.484C96.7181 128.426 98.2928 130 100.234 130H122.828C124.77 130 126.344 128.426 126.344 126.484V80.7968C126.344 62.2482 111.254 47.1584 92.7054 47.1584ZM119.312 122.969H103.75V85.0622C103.75 75.8566 96.2613 68.3676 87.0566 68.3676C77.85 68.3676 70.3601 75.8566 70.3601 85.0622V122.969H54.7971V54.6868H70.3601V57.2842C70.3601 58.6364 71.1356 59.8687 72.355 60.4537C73.5736 61.0388 75.0201 60.8721 76.0757 60.0271C80.8365 56.2084 86.5878 54.1897 92.7054 54.1897C107.377 54.1897 119.312 66.1254 119.312 80.7968V122.969Z" fill="#59C7F6"/>
</g>
<defs>
<filter id="filter0_d" x="-2" y="0" width="140" height="140" filterUnits="userSpaceOnUse" color-interpolation-filters="sRGB">
<feFlood flood-opacity="0" result="BackgroundImageFix"/>
<feColorMatrix in="SourceAlpha" type="matrix" values="0 0 0 0 0 0 0 0 0 0 0 0 0 0 0 0 0 0 127 0"/>
<feOffset/>
<feGaussianBlur stdDeviation="5"/>
<feColorMatrix type="matrix" values="0 0 0 0 0.34902 0 0 0 0 0.780392 0 0 0 0 0.964706 0 0 0 1 0"/>
<feBlend mode="normal" in2="BackgroundImageFix" result="effect1_dropShadow"/>
<feBlend mode="normal" in="SourceGraphic" in2="effect1_dropShadow" result="shape"/>
</filter>
</defs>
</svg>